<svg xmlns="http://www.w3.org/2000/svg" width="106" height="106" viewBox="0 0 106 106"><defs><mask id="2k1cb" width="2.05" height="2.05" x="-1.02" y="-1.02"><path fill="#fff" d="M8 8h90v90H8z"/><path d="M40.927 10.45h24.777c16.569 0 30 13.432 30 30v24.798c0 16.568-13.431 30-30 30H40.927c-16.569 0-30-13.432-30-30V40.45c0-16.568 13.431-30 30-30z"/></mask><filter id="2k1ca" width="132.2" height="132.2" x="-13.1" y="-13.1" filterUnits="userSpaceOnUse"><feOffset in="SourceGraphic" result="FeOffset1043Out"/><feGaussianBlur in="FeOffset1043Out" result="FeGaussianBlur1044Out" stdDeviation="4.4399999999999995 4.4399999999999995"/></filter><clipPath id="2k1cc"><path fill="#fff" d="M7 99V7h92v92zm3.927-58.55v24.798c0 16.568 13.431 30 30 30h24.777c16.569 0 30-13.432 30-30V40.45c0-16.568-13.431-30-30-30H40.927c-16.569 0-30 13.432-30 30z"/></clipPath><filter id="2k1ce" width="200%" height="200%" x="-50%" y="-50%"><feGaussianBlur in="SourceGraphic" result="FeGaussianBlur1068Out" stdDeviation="8 8"/></filter><mask id="2k1cf"><path fill="#fff" d="M45.453 20.93h15.726c13.807 0 25 11.194 25 25v15.743c0 13.807-11.193 25-25 25H45.453c-13.808 0-25-11.193-25-25V45.93c0-13.807 11.192-25 25-25z"/></mask><clipPath id="2k1cg"><path fill="#fff" d="M17 90V17h73v73zm3.452-44.07v15.743c0 13.807 11.193 25 25 25H61.18c13.807 0 25-11.193 25-25V45.93c0-13.807-11.193-25-25-25H45.453c-13.808 0-25 11.193-25 25z"/></clipPath><linearGradient id="2k1ch" x1="53.6" x2="53.98" y1="37.13" y2="69.53" gradientUnits="userSpaceOnUse"><stop offset="0" stop-color="#fcfae8"/><stop offset="1" stop-color="#fcfae8" stop-opacity="0"/></linearGradient><clipPath id="2k1ci"><path fill="#fff" d="M33.445 73.553V33.447h40.11v40.106zm5.603-34.98c-2.394 2.397-1.747 6.93 1.445 10.125l4.63 4.634-4.618 4.622c-3.192 3.195-3.838 7.728-1.444 10.125 2.393 2.396 6.922 1.749 10.113-1.447l4.618-4.622 4.617 4.622c3.192 3.196 7.72 3.843 10.114 1.447 2.394-2.397 1.747-6.93-1.445-10.125l-4.617-4.622 4.63-4.634c3.192-3.195 3.838-7.728 1.445-10.125-2.394-2.396-6.923-1.748-10.114 1.447l-4.63 4.634-4.63-4.634c-3.192-3.195-7.72-3.843-10.114-1.447z"/></clipPath><clipPath id="2k1cd"><path d="M40.927 10.45h24.777c16.569 0 30 13.432 30 30v24.798c0 16.568-13.431 30-30 30H40.927c-16.569 0-30-13.432-30-30V40.45c0-16.568 13.431-30 30-30z"/></clipPath></defs><g><g><g><g filter="url(#2k1ca)"><path fill="none" stroke="#feff9c" stroke-opacity=".34" stroke-width="4" d="M40.927 10.45h24.777c16.569 0 30 13.432 30 30v24.798c0 16.568-13.431 30-30 30H40.927c-16.569 0-30-13.432-30-30V40.45c0-16.568 13.431-30 30-30z" mask="url(&quot;#2k1cb&quot;)"/><path fill="#feff9c" fill-opacity=".34" d="M40.927 10.45h24.777c16.569 0 30 13.432 30 30v24.798c0 16.568-13.431 30-30 30H40.927c-16.569 0-30-13.432-30-30V40.45c0-16.568 13.431-30 30-30z"/></g><g filter="url(#2k1ca)"><path fill="none" stroke="#feff9c" stroke-opacity=".34" stroke-width="4" d="M40.927 10.45h24.777c16.569 0 30 13.432 30 30v24.798c0 16.568-13.431 30-30 30H40.927c-16.569 0-30-13.432-30-30V40.45c0-16.568 13.431-30 30-30z" mask="url(&quot;#2k1cb&quot;)"/><path fill="#feff9c" fill-opacity=".34" d="M40.927 10.45h24.777c16.569 0 30 13.432 30 30v24.798c0 16.568-13.431 30-30 30H40.927c-16.569 0-30-13.432-30-30V40.45c0-16.568 13.431-30 30-30z"/></g><path fill="#feff9c" d="M40.927 10.45h24.777c16.569 0 30 13.432 30 30v24.798c0 16.568-13.431 30-30 30H40.927c-16.569 0-30-13.432-30-30V40.45c0-16.568 13.431-30 30-30z"/><path fill="none" stroke="#fbd15c" stroke-linecap="round" stroke-linejoin="round" stroke-miterlimit="50" stroke-width="6" d="M40.927 10.45h24.777c16.569 0 30 13.432 30 30v24.798c0 16.568-13.431 30-30 30H40.927c-16.569 0-30-13.432-30-30V40.45c0-16.568 13.431-30 30-30z" clip-path="url(&quot;#2k1cc&quot;)"/></g><g clip-path="url(#2k1cd)"><path fill="#fff" d="M3.781-.983h97.164c5.523 0 10 4.477 10 10v37.167c0 5.522-4.477 10-10 10H3.781c-5.523 0-10-4.478-10-10V9.017c0-5.523 4.477-10 10-10z"/></g><g><path fill="#db2764" d="M4 103V4h99v99zm16.452-57.07v15.743c0 13.807 11.193 25 25 25H61.18c13.807 0 25-11.193 25-25V45.93c0-13.807-11.193-25-25-25H45.453c-13.808 0-25 11.193-25 25z" filter="url(#2k1ce)" mask="url(&quot;#2k1cf&quot;)"/><path fill="#e93433" d="M45.453 20.93h15.726c13.807 0 25 11.194 25 25v15.743c0 13.807-11.193 25-25 25H45.453c-13.808 0-25-11.193-25-25V45.93c0-13.807 11.192-25 25-25z"/><path fill="#db2764" d="M4 103V4h99v99zm16.452-57.07v15.743c0 13.807 11.193 25 25 25H61.18c13.807 0 25-11.193 25-25V45.93c0-13.807-11.193-25-25-25H45.453c-13.808 0-25 11.193-25 25z" filter="url(#2k1ce)" mask="url(&quot;#2k1cf&quot;)"/><path fill="none" stroke="#deae4c" stroke-linecap="round" stroke-linejoin="round" stroke-miterlimit="50" stroke-width="6" d="M45.453 20.93h15.726c13.807 0 25 11.194 25 25v15.743c0 13.807-11.193 25-25 25H45.453c-13.808 0-25-11.193-25-25V45.93c0-13.807 11.192-25 25-25z" clip-path="url(&quot;#2k1cg&quot;)"/></g><g><path fill="#feff9c" d="M39.048 38.573c2.394-2.396 6.922-1.748 10.114 1.447l4.63 4.634 4.63-4.634c3.191-3.195 7.72-3.843 10.114-1.447 2.393 2.397 1.747 6.93-1.445 10.125l-4.63 4.634 4.617 4.622c3.192 3.195 3.839 7.728 1.445 10.125-2.394 2.396-6.922 1.749-10.114-1.447l-4.617-4.622-4.618 4.622c-3.191 3.196-7.72 3.843-10.113 1.447-2.394-2.397-1.748-6.93 1.444-10.125l4.618-4.622-4.63-4.634c-3.192-3.195-3.839-7.728-1.445-10.125z"/><path fill="url(#2k1ch)" d="M39.048 38.573c2.394-2.396 6.922-1.748 10.114 1.447l4.63 4.634 4.63-4.634c3.191-3.195 7.72-3.843 10.114-1.447 2.393 2.397 1.747 6.93-1.445 10.125l-4.63 4.634 4.617 4.622c3.192 3.195 3.839 7.728 1.445 10.125-2.394 2.396-6.922 1.749-10.114-1.447l-4.617-4.622-4.618 4.622c-3.191 3.196-7.72 3.843-10.113 1.447-2.394-2.397-1.748-6.93 1.444-10.125l4.618-4.622-4.63-4.634c-3.192-3.195-3.839-7.728-1.445-10.125z"/><path fill="none" stroke="#ba1c63" stroke-linecap="round" stroke-linejoin="round" stroke-miterlimit="50" stroke-width="10" d="M39.048 38.573c2.394-2.396 6.922-1.748 10.114 1.447l4.63 4.634 4.63-4.634c3.191-3.195 7.72-3.843 10.114-1.447 2.393 2.397 1.747 6.93-1.445 10.125l-4.63 4.634 4.617 4.622c3.192 3.195 3.839 7.728 1.445 10.125-2.394 2.396-6.922 1.749-10.114-1.447l-4.617-4.622-4.618 4.622c-3.191 3.196-7.72 3.843-10.113 1.447-2.394-2.397-1.748-6.93 1.444-10.125l4.618-4.622-4.63-4.634c-3.192-3.195-3.839-7.728-1.445-10.125z" clip-path="url(&quot;#2k1ci&quot;)"/></g></g></g></svg>